<svg xmlns="http://www.w3.org/2000/svg" width="480" height="640" viewBox="0 0 480 640"><defs><clipPath id="udlga"><path fill="#fff" d="M388 80c6.627 0 12 5.372 12 12v456c0 6.627-5.373 12-12 12H92c-6.627 0-12-5.373-12-12V123l43-43z"/></clipPath></defs><g><g><path fill="#f2f2f2" d="M388 80c6.627 0 12 5.372 12 12v456c0 6.627-5.373 12-12 12H92c-6.627 0-12-5.373-12-12V123l43-43z"/><path fill="none" stroke="#1698d9" stroke-miterlimit="20" stroke-width="8" d="M388 80c6.627 0 12 5.372 12 12v456c0 6.627-5.373 12-12 12H92c-6.627 0-12-5.373-12-12V123l43-43z" clip-path="url(&quot;#udlga&quot;)"/></g></g></svg>